<?xml version="1.0" encoding="UTF-8"?>
<!DOCTYPE svg PUBLIC "-//W3C//DTD SVG 1.1//EN" "http://www.w3.org/Graphics/SVG/1.1/DTD/svg11.dtd">
<!-- Creator: CorelDRAW 2018 (64 Bit) -->
<svg xmlns="http://www.w3.org/2000/svg" xml:space="preserve" width="41.038mm" height="83.5938mm" version="1.1" style="shape-rendering:geometricPrecision; text-rendering:geometricPrecision; image-rendering:optimizeQuality; fill-rule:evenodd; clip-rule:evenodd"
viewBox="0 0 9131.67 18601.08"
 xmlns:xlink="http://www.w3.org/1999/xlink">
 <defs>
  <style type="text/css">
   <![CDATA[
    .fil4 {fill:black}
    .fil0 {fill:#026D45}
    .fil5 {fill:#046E45}
    .fil10 {fill:#12724D}
    .fil2 {fill:#46B494}
    .fil11 {fill:#659B85}
    .fil14 {fill:#909090}
    .fil12 {fill:#A38D54}
    .fil8 {fill:#BC0202}
    .fil9 {fill:#D50B0B}
    .fil6 {fill:#DD0A09}
    .fil1 {fill:#DF0909}
    .fil7 {fill:#E5E6E5}
    .fil13 {fill:#ED9291}
    .fil3 {fill:#FE934E}
   ]]>
  </style>
 </defs>
 <g id="Capa_x0020_1">
  <metadata id="CorelCorpID_0Corel-Layer"/>
  <path class="fil0" d="M361.95 11087.09c-6.19,123.72 -59.68,208.23 -61.04,383.33 -1.09,140.39 23.5,253.02 42.3,380.1 33.42,402.11 445.15,835 689.6,982.77 696.68,421.09 2204.46,224.61 3025.61,147.4 451.62,-42.46 1083.59,-145.19 1520.51,-133.67 80.17,-39.88 69,-41.59 150,-0.89 -18.87,106.72 -13.53,52.67 -46.71,85.82 -46.75,539.27 -96.73,761.14 -29.53,1335.71 43.64,373.14 121.92,880.28 215,1230.57 207.12,94.55 328.81,130.08 629.79,104.85 320.31,-26.86 349.24,-85.91 554.65,-184.85 98.13,-532.6 132.75,-1540.64 160.35,-2129.98 36.54,-781.1 139.5,-1541.22 -419.91,-1880.52 -232.11,-140.79 -652.2,-153.18 -961.74,-208.48 -306.65,-54.76 -617.22,-140.83 -938.18,-197.73 -683.51,-121.21 -1353.82,-188.47 -2069.23,-234.11l-2334.99 2.07 -126.48 317.6z"/>
  <path class="fil1" d="M948.1 5214.81c-38.94,122.63 -194.7,242.03 -264.73,479.95 -5.92,33.07 -8.92,67.38 -18.74,99.87 -27.04,89.52 -12.93,30.15 -29.84,60.06 -66.38,1004.71 82.75,1671.75 266.95,2591.59 87.29,435.93 191.08,862.17 60.7,1304.44 -117.64,399.09 -400.66,706.23 -474.03,1018.77l2334.99 -2.07c42.97,-678.81 46.15,-1342.94 4.49,-2029.07l-30.62 -34.31c47.49,98.58 26.92,78.17 6.94,195.66 -56.5,-74.08 -431.44,-445.92 -659.05,-734.69 -112.35,-142.52 -525.21,-632.95 -584.24,-798.35 -488.54,-49.04 -775.99,-490.01 -843.25,-992.21 -36.83,-274.85 5.87,-560.45 103.94,-786.87 142.32,-328.61 260.68,-301.49 391.52,-472.63l-28.66 -17.2c-108.14,11.04 -127.3,72.03 -236.38,117.04z"/>
  <path class="fil2" d="M343.21 11850.52c-18.8,-127.08 -43.39,-239.72 -42.3,-380.1 1.36,-175.1 54.85,-259.61 61.04,-383.33 -38.38,-46.84 -10.26,8.12 -28.79,-62.28l-12.57 -2928.64c-2.45,-501.6 0.04,-1003.78 -0.02,-1505.46 0,-154.2 -36.29,-1342.65 24.74,-1485.82 1.89,-4.47 5.52,-13.02 10.24,-18.11 -47.35,-109.57 -74.65,-1527.74 -13.53,-1622.06l-14.42 -112.04 -7.52 -168.36 6.27 -216.89c-20.07,-203.76 -42.12,-477.26 26.7,-656.29 -82.98,-102.76 -36.85,-413.24 -36.78,-548.26 0.11,-267.42 22.03,-1619.75 -20.89,-1687.15 -95.06,-97.11 -184.89,-107.56 -260.48,8.37 -65,99.62 -17.73,12063.87 -17.71,13878.15 0,615.55 -55.34,4347.23 32.75,4601.04 115.04,42.35 167.82,69.14 248.82,-32.24 98.46,-145.19 -34.62,-6497.91 44.46,-6680.51z"/>
  <path class="fil3" d="M1213.14 5114.96c-130.84,171.14 -249.2,144.01 -391.52,472.63 -98.06,226.41 -140.76,512.01 -103.94,786.87 67.27,502.2 354.72,943.16 843.25,992.21l142.68 -2.25c99.84,199.8 383.93,504.8 532.68,683.11l560.99 656.52 30.62 34.31c151.47,79.44 227.72,228.5 499.53,134.96 166.49,-57.32 258.39,-202.02 304.92,-394.75 132.58,-549.13 -107.28,-736.02 -193.41,-1110.01 -99.13,127.24 -50.49,190.34 -203.16,271.67 -93.1,-245.53 -279.55,-541.65 -424.41,-764.55 -300.02,-461.5 -369.33,-395.15 -395.04,-774.96 -23.01,-340.21 -179.95,-647.24 -347.62,-818.37 -248.91,-254.07 -459.08,-276.95 -855.58,-167.38z"/>
  <path class="fil4" d="M353.05 2311.13c-68.82,179.04 -46.77,452.53 -26.7,656.29l175.12 276.1c196.1,292.83 519.07,762.57 535.82,1236.53 198.6,-52.16 545.39,-393.97 533.26,-718.33 -13.93,-372.89 -415.55,-620.47 -212.15,-907.4 97.44,-137.47 249.38,-166.27 414.26,-51.62 123.03,85.54 262.28,-17.33 420.02,-75.26 168.85,-61.97 338.29,-64.6 493.77,-128.59 177.92,-73.21 189.01,-179.24 314.15,-290.56 2.91,-401.71 -92.86,-551.42 -378.03,-720.49 -247.08,-146.48 -581.64,-233.75 -928.57,-217.82 -600.33,27.57 -1215.81,509.28 -1340.96,941.16z"/>
  <path class="fil3" d="M1037.29 4480.05l-89.18 734.75c109.08,-45.02 128.24,-106.01 236.38,-117.04 131.09,-163.68 517.89,-132.58 694.59,-41.43 190.9,98.44 330.22,289.18 444.08,464.77 160.68,247.75 554.51,953.11 779.5,1026.76 -216.26,-521.22 -815.26,-927.45 -858.96,-1565.32 -89.81,-1311.03 530.95,-343.72 729.72,-799.79 68.27,-156.59 -40.81,-182.78 57.88,-357.3 106.59,-188.52 25.37,-150.31 19.65,-349.53l208.41 -94.55c-14.91,-180.37 -178.73,-249.8 -227.06,-466.93 -42.1,-189.12 41.81,-366.15 -31.69,-606.16 -125.14,111.33 -136.23,217.36 -314.15,290.56 -155.47,64 -324.92,66.62 -493.77,128.59 -157.74,57.92 -296.99,160.79 -420.02,75.26 -164.89,-114.64 -316.82,-85.85 -414.26,51.62 -203.4,286.94 198.22,534.51 212.15,907.4 12.13,324.36 -334.67,666.17 -533.26,718.33z"/>
  <path class="fil3" d="M5867.7 15498.23c33.04,265.51 90.99,535.8 121.67,803.62 17.25,150.51 28.66,287.18 37.07,436.67 6.36,112.64 61.86,345.73 -34.25,420.51 72.56,154.45 139.38,179.08 330.99,221.74 136.91,30.46 344.97,105.09 478.19,75.57 70.67,-86.11 124.9,-213.93 167.47,-347.13 -62.33,-86.45 -17.89,-282.64 -8.92,-423.7 23.94,-376.05 90.08,-944.1 92.21,-1267.28 -205.41,98.93 -234.33,157.99 -554.65,184.85 -300.98,25.23 -422.67,-10.3 -629.79,-104.85z"/>
  <path class="fil5" d="M9062.53 18120.55c-21.96,-48.53 26.66,-47.31 -52.83,-27.5 -308.99,43.01 -565.64,157.65 -954.4,183.2 -431.75,28.37 -685.84,-56.61 -1050.82,-73.9l-95.73 -40.81c-316.82,5.74 -894.81,35.36 -1162.5,-75.88l-57.74 7.88 -11.55 400.24c257.92,117.24 627.88,80.93 924.25,65.06 635.69,-34.07 2288.06,169.16 2461.31,-438.29z"/>
  <path class="fil1" d="M6968.85 17109.21c-42.57,133.2 -96.8,261.01 -167.47,347.13 -133.22,29.53 -341.27,-45.1 -478.19,-75.57 -191.61,-42.66 -258.43,-67.29 -330.99,-221.74l-68.16 -48.26 -71.52 240.07c5.79,128.15 -22.39,59.35 47.2,83.78 658.1,4.27 976.12,244.06 1484.04,417.04 469.67,159.99 1254.93,190.03 1747.92,82.29 -78.01,-325.5 -269.09,-202.87 -584.93,-216.89 -859.67,-38.14 -1383.77,-696.97 -1532.57,-740.83l-45.33 132.98z"/>
  <path class="fil6" d="M1184.48 5097.76l28.66 17.2c396.5,-109.57 606.67,-86.69 855.58,167.38 167.67,171.14 324.61,478.17 347.62,818.37 25.7,379.82 95.01,313.46 395.04,774.96 144.86,222.9 331.31,519.02 424.41,764.55 152.67,-81.33 104.03,-144.44 203.16,-271.67 37.87,-183.18 96.88,-337.14 -5.07,-518.42 -51.47,-91.48 -237.25,-259.77 -331.22,-302.27 -224.99,-73.65 -618.82,-779.01 -779.5,-1026.76 -113.86,-175.59 -253.18,-366.33 -444.08,-464.77 -176.7,-91.14 -563.5,-122.25 -694.59,41.43z"/>
  <path class="fil7" d="M5770.06 17681.66c382.84,-40.08 1337,-4.74 1296.08,408.79l-113.19 48.02c5.12,6.05 11.35,14.31 14.8,18.6 3.18,3.94 10.57,13.24 13.71,17.13 3.69,4.58 17.31,21.67 23.05,28.15 364.97,17.29 619.07,102.27 1050.82,73.9 388.76,-25.55 645.41,-140.19 954.4,-183.2 0.31,-0.27 90.28,-99.06 80.64,-13.51l41.32 -145.59c-492.99,107.74 -1278.25,77.7 -1747.92,-82.29 -507.92,-172.99 -825.94,-412.77 -1484.04,-417.04 -69.58,-24.43 -41.41,44.37 -47.2,-83.78l-35.8 90.59c0,0.02 -6.36,68.74 -6.68,71.47 -10.61,92.43 -8.32,73.54 -39.99,168.76z"/>
  <path class="fil4" d="M355.54 5086.77c127.79,214.93 254.09,254.78 37.56,437.8 506.47,8.54 612.03,-551.64 475.03,-1014.23 -124.61,-420.76 -416.37,-709.01 -526.12,-1045.63 -61.13,94.33 -33.82,1512.5 13.53,1622.06z"/>
  <path class="fil6" d="M5770.06 17681.66l-43.7 290.14 19.92 113.86c267.69,111.24 845.68,81.62 1162.5,75.88l44.17 -23.08 113.19 -48.02c40.92,-413.53 -913.23,-448.86 -1296.08,-408.79z"/>
  <path class="fil8" d="M2797.29 8704.04l-560.99 -656.52c-148.75,-178.3 -432.84,-483.31 -532.68,-683.11l-142.68 2.25c59.03,165.4 471.89,655.83 584.24,798.35 227.61,288.76 602.55,660.61 659.05,734.69 19.98,-117.49 40.54,-97.08 -6.94,-195.66z"/>
  <path class="fil9" d="M320.07 3184.31c30.04,26.97 -0.6,-3.58 42.1,40.83 16.71,17.38 22.07,24.77 41.41,44.79l97.89 -26.41 -175.12 -276.1 -6.27 216.89z"/>
  <path class="fil10" d="M327.59 3352.67c65.15,-30.17 41.21,-0.87 75.99,-82.73 -19.34,-20.03 -24.7,-27.41 -41.41,-44.79 -42.7,-44.41 -12.06,-13.86 -42.1,-40.83l7.52 168.36z"/>
  <path class="fil11" d="M5682.23 12931.96c33.18,-33.16 27.84,20.89 46.71,-85.82 -81,-40.7 -69.83,-38.99 -150,0.89l121 -0.22 -17.71 85.16z"/>
  <polygon class="fil12" points="5688.52,18093.54 5746.27,18085.66 5726.35,17971.8 "/>
  <path class="fil13" d="M634.8 5854.68c16.91,-29.91 2.8,29.46 29.84,-60.06 9.81,-32.49 12.82,-66.8 18.74,-99.87 -11.55,16.87 -22.7,18.98 -34.76,58.54 -10.08,33.13 -10.35,70.2 -13.82,101.38z"/>
  <path class="fil11" d="M9062.53 18120.55l27.81 -41.01c9.64,-85.56 -80.33,13.24 -80.64,13.51 79.48,-19.8 30.86,-21.03 52.83,27.5z"/>
  <path class="fil14" d="M7004.49 18202.35c-5.74,-6.48 -19.36,-23.56 -23.05,-28.15 -3.14,-3.89 -10.53,-13.2 -13.71,-17.13 -3.45,-4.29 -9.68,-12.55 -14.8,-18.6l-44.17 23.08 95.73 40.81z"/>
 </g>
</svg>
