<?xml version="1.0" encoding="UTF-8"?>
<!DOCTYPE svg PUBLIC "-//W3C//DTD SVG 1.1//EN" "http://www.w3.org/Graphics/SVG/1.1/DTD/svg11.dtd">
<!-- Creator: CorelDRAW 2018 (64 Bit) -->
<svg xmlns="http://www.w3.org/2000/svg" xml:space="preserve" width="37.3931mm" height="65mm" version="1.1" style="shape-rendering:geometricPrecision; text-rendering:geometricPrecision; image-rendering:optimizeQuality; fill-rule:evenodd; clip-rule:evenodd"
viewBox="0 0 4496.22 7815.73"
 xmlns:xlink="http://www.w3.org/1999/xlink">
 <defs>
  <style type="text/css">
   <![CDATA[
    .fil8 {fill:black}
    .fil6 {fill:#016E44}
    .fil5 {fill:#026F45}
    .fil1 {fill:#055936}
    .fil10 {fill:#08724A}
    .fil9 {fill:#1A7753}
    .fil7 {fill:#45B395}
    .fil0 {fill:#DF0909}
    .fil11 {fill:#E3E5E3}
    .fil4 {fill:#FD934E}
    .fil2 {fill:#FE9550}
    .fil3 {fill:#FF944F}
   ]]>
  </style>
 </defs>
 <g id="Capa_x0020_1">
  <metadata id="CorelCorpID_0Corel-Layer"/>
  <path class="fil0" d="M1666.66 1960.38c7.38,109.5 97.65,173.12 127.7,302.4 30.65,131.93 26.87,268.26 -9.44,394.66 -60.19,209.44 -196.5,381.26 -252,621.45 32.36,-26 120.17,-170.14 152.25,-207.95 48.21,-56.83 138.76,-148.53 203.02,-179.29 15.08,-39.74 101.29,-90.3 166.8,-75.84 62.85,13.86 104.89,78.13 135.31,128.95 65.71,109.77 103.68,270.09 113.22,403.29l641.29 0.87c-70.76,-279.31 -186.47,-416.88 -275.73,-645.86 -49.88,-127.95 -64.46,-259.64 -37.48,-409.42 28.63,-158.9 129.52,-217.36 132.82,-338.46 23.62,-241.46 -176.61,-338.47 -140.27,-707.05l-63.2 -4.4c-16.85,795.5 -668.29,801.89 -685.62,-3.45l-66.47 7.35c29.04,372.5 -167.18,479.34 -142.19,712.76z"/>
  <path class="fil1" d="M2246.63 4130.29c-17.7,83.4 31.36,318.62 60.9,397.87l519.69 420.61c-9.54,-71.65 -16.26,-116.72 22.76,-176.29 79.8,-457 202.04,-934.41 94.82,-1423.57l-641.29 -0.87c3.99,283.37 -57.28,522.54 -56.89,782.25z"/>
  <path class="fil2" d="M2764.41 1955.17c60.6,58.38 26.26,255.54 167.53,497.98 85.47,146.65 128.54,298.98 235.51,421.8 96.81,111.16 226.76,202.09 354.62,302.88 194.76,153.55 225.61,261.37 387.62,282.75l36.83 117c103.17,11.3 170.18,-18.41 210.39,-66.35l17.76 -91.25c-21.96,-165.86 -199.96,-81.88 -314.71,-159.39 -126.83,-85.68 -394.36,-693.33 -646.97,-797.85 16.08,-316.51 -95.68,-474.9 -151.96,-743.11 -33.46,-159.48 -10.47,-234.32 -109.96,-337.81 -59.84,-62.25 -206.37,-129.93 -326.93,-133.69 -36.34,368.58 163.89,465.59 140.27,707.05z"/>
  <path class="fil3" d="M258.68 3430.94l24.61 91.71c52.62,43.82 108.92,59.22 202.63,55.8l42.12 -115.05c162.86,-31.73 257.81,-187.08 376.2,-279.69 119.15,-93.2 269.74,-197.12 356.77,-300.61 115.47,-137.3 141.61,-261.84 236.55,-421.09 67.01,-112.38 153.46,-483.66 169.1,-501.64 -25,-233.41 171.22,-340.26 142.19,-712.76 -125.74,7.42 -250.14,63.96 -318.06,129.19 -104.63,100.5 -83.58,169.61 -114.43,331.74 -53.99,283.59 -163.58,415.16 -155.68,754.28 -262.56,121.26 -518.09,713.54 -646.48,798.53 -124.63,82.53 -292.1,-15.2 -315.52,169.59z"/>
  <path class="fil4" d="M1821.98 581.17c-5.42,128.83 -30.41,107.65 47.03,199.46 42.76,50.69 70.98,132.86 111.39,178.81 44.2,50.27 74.25,108.61 28.97,199.16 -39.57,79.12 -135.18,49.38 -200.52,89.03l66.47 -7.35c17.33,805.34 668.77,798.95 685.62,3.45l63.2 4.4c-58.68,-37.92 -166.35,-21.72 -212.68,-76 -50.72,-59.46 -42.08,-153.83 8.2,-206.78 60,-63.16 67.25,-120.46 113.83,-176.14 55.82,-66.72 94.03,-97.08 41.78,-210.04l-43.07 10.88c-121.68,-118.63 -104.66,-260.99 -183.98,-369.18 -52.7,56.59 -161.59,339.62 -491.74,422.51l-34.5 -62.2z"/>
  <path class="fil5" d="M2430.96 6129.17c134.74,57.38 275.05,78.52 421.99,12.72 57.73,-197.65 97.54,-466.66 86.86,-684.86 -13.19,-269.31 -108.71,-395.66 -89.83,-684.55 -39.02,59.57 -32.3,104.63 -22.76,176.29l-519.69 -420.61c23.41,124.28 72.18,240.33 100.87,369.42 43.35,195.06 -8.81,220.01 -36.51,387.59 -39.13,236.78 13.85,609.9 59.06,844z"/>
  <path class="fil6" d="M1888.18 2891.64c-103.64,209.04 -173.76,288.42 -176.59,592.94 -1.15,123.86 12.66,225.37 30.84,341.97 8.48,54.36 82.46,269.68 30.81,283.46l27.43 16.2c36.97,-22.23 195.97,53.22 341.99,7.48 10.5,-3.28 47.95,-19.78 48.21,-19.84 58.95,-13.95 20.09,-37.7 45.17,16.14l10.58 0.31c-0.4,-259.71 60.88,-498.87 56.89,-782.25 -9.54,-133.2 -47.51,-293.52 -113.22,-403.29 -30.42,-50.81 -72.46,-115.08 -135.31,-128.95 -65.51,-14.47 -151.72,36.1 -166.8,75.84z"/>
  <path class="fil7" d="M2412.21 7660.31l-1.07 -105.51c-406.49,87.52 -1132.07,-132.1 -1424.51,-300.5 -353.58,-203.61 -652.73,-492.04 -796.9,-937.8 -186.66,-577.16 -35.9,-975.92 103.32,-1481.71 62.44,-226.81 -74.71,-506.44 -137.52,-693.69 -71.62,-213.49 -112.38,-568.24 127.76,-618.45l-24.61 -91.71c-228.16,30.91 -302.6,355.04 -234.33,615.75 54.87,209.46 213.97,502.18 183.14,726.57 -17.95,130.68 -135.51,349.22 -180.86,729.75 -33.01,277.03 -16.93,568.94 62.85,821.04 155.35,490.94 455.87,777.41 826.35,1001.24 175.26,105.89 421.3,201.33 650.61,255.91 326.9,77.8 516.14,58.26 845.77,79.11z"/>
  <path class="fil8" d="M1821.98 581.17l34.5 62.2c330.15,-82.88 439.04,-365.92 491.74,-422.51 79.32,108.19 62.3,250.55 183.98,369.18l43.07 -10.88c2.59,-21.92 56.36,-246.14 61.25,-255.6 98.36,-28.79 691.84,149.99 656.99,-224.32 -66.15,47.46 -35.17,67.42 -166.31,27.38 -197.55,-60.3 -395.04,-105.82 -542.44,39.74 -74.27,-66.72 -88.99,-138.86 -227.02,-163.61 -38.51,-6.9 -318,0.25 -350.64,10.63 -224.82,71.56 -234.52,326.01 -185.14,567.79z"/>
  <path class="fil7" d="M4156.91 3511.22c241.63,26.9 276.51,294.39 214.39,524.3 -54.28,200.85 -158.25,383.33 -182.9,593.6 -23.36,199.39 94.79,439.14 138.23,636.02 203.44,921.9 -136.4,1663.37 -937.54,2049.65 -109.2,52.67 -450.09,193.24 -577.08,185.77l-1.58 108.1c535.04,-137.95 773.29,-246.57 1114.13,-534.08 511.43,-431.42 651.72,-1162.79 493.49,-1845.85 -52.64,-227.17 -173.86,-434.55 -117.93,-671.72 50.8,-215.41 164.14,-402.86 191.37,-625.55 30.6,-250.36 -88.67,-511.5 -316.81,-511.5l-17.76 91.25z"/>
  <path class="fil1" d="M1532.92 3278.88c-53.87,151.54 -97.32,335.73 -43.24,512.87 40.34,132.15 163.41,307.04 283.57,318.26 51.66,-13.78 -22.33,-229.1 -30.81,-283.46 -18.18,-116.6 -32,-218.11 -30.84,-341.97 2.83,-304.51 72.95,-383.9 176.59,-592.94 -64.26,30.76 -154.81,122.47 -203.02,179.29 -32.08,37.8 -119.89,181.95 -152.25,207.95z"/>
  <path class="fil0" d="M2494.73 6835.22c-39.13,47.58 -3.7,129.45 0.9,201.72l10.04 65.78c73.83,147.98 -90.1,433.6 -31.46,542.84 44.49,82.88 267.55,116.48 270.35,-241.05 1.39,-179.5 5.64,-206.8 36.72,-370.41 -0.43,-50.85 1.45,-53.46 -22.8,-88.33l-9.01 87.8c-11.35,-154.35 -76.41,-334.45 -254.76,-198.36z"/>
  <path class="fil0" d="M1887.55 4919.21l-15.96 30.91c-12.36,112.57 32.49,186.94 32.14,296.78 -0.4,124.55 -18.69,184.1 21.21,304.32 27.86,83.96 100.34,156 198.34,102.17 88.83,-48.81 48.27,-149.52 34.74,-250.34 -25.42,-106.07 -54.95,-284.13 -7.26,-392.07 4.77,-86.6 41.15,-137.33 5.9,-210.04 -190.01,-101.35 -257.05,24.75 -260.83,206.2l-8.28 -87.93z"/>
  <path class="fil4" d="M2494.73 6835.22c178.34,-136.09 243.41,44.01 254.76,198.36l9.01 -87.8 0.47 -55.71c-4.41,-272.61 70.91,-492.09 93.98,-748.18 -146.94,65.8 -287.25,44.66 -421.99,-12.72 28.98,251.97 73.76,436.3 63.78,706.05z"/>
  <path class="fil4" d="M1800.67 4126.2c27.61,114.43 121.05,648.87 77.96,737.37 1.66,2.75 4.87,3.31 5.15,8.15 0.3,5.04 3.6,6.95 3.87,9.27 2.87,23.7 2.68,12.25 -0.11,38.21l8.28 87.93c3.78,-181.46 70.82,-307.56 260.83,-206.2 -13.5,-135.66 7.78,-586.11 79.38,-670.96 -25.08,-53.83 13.78,-30.08 -45.17,-16.14 -0.25,0.06 -37.71,16.56 -48.21,19.84 -146.02,45.74 -305.02,-29.71 -341.99,-7.48z"/>
  <path class="fil9" d="M2150.76 5010.98c-47.69,107.94 -18.16,286.01 7.26,392.07 13.74,15.09 6.97,-3.74 23.35,35.93 94.58,229.06 -166.72,408.65 -284.77,168.63 -52.76,-107.29 -49.49,-537.58 -25.01,-657.48l15.96 -30.91c2.79,-25.96 2.98,-14.51 0.11,-38.21 -0.28,-2.32 -3.57,-4.23 -3.87,-9.27 -0.28,-4.85 -3.49,-5.4 -5.15,-8.15 -116.15,95.59 -36.48,344.61 -43.41,488.75 -9.45,196.66 -16.12,366.69 144.9,422.23 179.1,61.77 273.25,-99.03 244.93,-273.71 -32.71,-201.78 -85.28,-171.16 -74.31,-489.87z"/>
  <path class="fil10" d="M2758.5 6945.78c24.25,34.87 22.37,37.48 22.8,88.33 31.8,68.27 0.6,325.53 -2.38,423.07 -12.65,413.89 -398.12,361.24 -327.5,38.31 13.32,-60.91 38.96,-114.17 51.04,-175.79 12.9,-65.9 -1.19,-145.83 3.22,-216.98l-10.04 -65.78c2.14,264.76 -44.63,298.62 -84.49,517.86l1.07 105.51c30.82,96.78 95.16,177.16 222.35,150.12 109.13,-23.21 138.88,-99.69 175.88,-201.77l1.58 -108.1c-7.84,-136.94 0.38,-202.45 10.34,-332.6 7.12,-93.14 13.68,-233.11 -63.39,-277.89l-0.47 55.71z"/>
  <path class="fil11" d="M2505.68 7102.72c-4.41,71.15 9.68,151.07 -3.22,216.98 -12.08,61.62 -37.72,114.88 -51.04,175.79 -70.62,322.93 314.85,375.58 327.5,-38.31 2.98,-97.54 34.18,-354.8 2.38,-423.07 -31.08,163.6 -35.33,190.91 -36.72,370.41 -2.8,357.53 -225.86,323.93 -270.35,241.05 -58.64,-109.24 105.28,-394.86 31.46,-542.84z"/>
  <path class="fil11" d="M2158.02 5403.05c13.53,100.82 54.1,201.54 -34.74,250.34 -98,53.83 -170.48,-18.2 -198.34,-102.17 -39.9,-120.22 -21.61,-179.77 -21.21,-304.32 0.35,-109.84 -44.5,-184.21 -32.14,-296.78 -24.48,119.91 -27.75,550.19 25.01,657.48 118.05,240.03 379.35,60.43 284.77,-168.63 -16.38,-39.67 -9.61,-20.84 -23.35,-35.93z"/>
 </g>
</svg>
