<?xml version="1.0" encoding="UTF-8"?>
<!DOCTYPE svg PUBLIC "-//W3C//DTD SVG 1.1//EN" "http://www.w3.org/Graphics/SVG/1.1/DTD/svg11.dtd">
<!-- Creator: CorelDRAW 2018 (64 Bit) -->
<svg xmlns="http://www.w3.org/2000/svg" xml:space="preserve" width="54.4702mm" height="60mm" version="1.1" style="shape-rendering:geometricPrecision; text-rendering:geometricPrecision; image-rendering:optimizeQuality; fill-rule:evenodd; clip-rule:evenodd"
viewBox="0 0 4726.41 5206.23"
 xmlns:xlink="http://www.w3.org/1999/xlink">
 <defs>
  <style type="text/css">
   <![CDATA[
    .fil3 {fill:black}
    .fil0 {fill:#016E44}
    .fil4 {fill:#026E45}
    .fil2 {fill:#DE0908}
    .fil1 {fill:#FD964E}
    .fil5 {fill:#FDFDFD}
   ]]>
  </style>
 </defs>
 <g id="Capa_x0020_1">
  <metadata id="CorelCorpID_0Corel-Layer"/>
  <g id="_2697118185520">
   <path class="fil0" d="M1241.87 2787.09c-86.63,20.3 -168.84,34.94 -257.08,57.86 -148.98,38.69 -95.82,45.99 -241.3,3.51 -187.08,-54.6 -338.1,-60.37 -530.65,-91.86 -71.04,28.37 -143.87,134.9 -180.51,229.79 -116.34,301.28 92.66,673.03 444.56,733.51 210.45,36.16 496.81,-60.53 683.9,-117.72 141.1,-43.13 546.14,-198.04 624.43,-213.41 -18.31,107.36 -54.87,215.45 -73.95,333.22 -18.84,116.23 -33.69,238.77 -44.7,357.29 87.99,102.05 255.73,143.41 417.21,103.75l232.12 -567.25c76.76,-194.84 345.08,-749.5 49.81,-876.24 -106.71,-45.81 -259.46,-17.4 -375.16,-9.49 -128.11,8.74 -255.56,4.85 -384.38,13.8 -125.94,8.75 -242.82,29.35 -364.3,43.27z"/>
   <path class="fil1" d="M1325.1 884.85c14.29,187.52 -19.51,210.53 -59.41,359.08 146.87,-76.5 300.31,-126.06 430.8,6.2 -27.07,-4.89 -230.16,-155.18 -433.79,54.07 -51.32,52.73 -91.18,90.36 -128.31,174.48 -132.5,300.21 33.71,579.82 316.21,478.73 231.22,-82.74 196.05,-240.41 324.88,-272.66 7.86,46.47 1.92,103.35 19.26,134.49l-6.2 -140.06c333.18,11.75 344.82,64.22 807.5,24.56 344.84,-29.56 112.93,-8.8 371.98,5.29 223.24,12.16 526.93,-59.15 772.21,-82.87 260.19,-25.16 234.35,0.38 473.5,-166.14 91.51,-63.72 205.6,-57.67 362.08,-72.91 51.67,-5.03 168.01,4.82 148.39,-62.28 -13.09,-44.76 -119.8,-34.75 -171.39,-38.03 -337.65,-21.46 -263.46,-49.62 -527.36,66.25 -140.92,61.88 -208.7,41.37 -370.85,26.67 -132.13,-11.99 -263.71,-24.63 -394.52,-33.53 -154.49,-10.52 -445.17,-40.15 -590.22,14.53 -93.87,35.39 -78.85,16.68 -174.78,-8.63 -240.74,-63.51 -507.29,-82.15 -765.59,-97.79 7.98,-72.56 32.84,-130.89 61.19,-177.55 101.52,-15.61 89.56,55.5 223.13,32.96 58.34,-52.44 19.22,-68.38 56.43,-127.23 44.96,-71.11 23.96,34.52 47.32,-138.14l83.36 -19.08c-3.24,-72.68 -51.6,-106.9 -46.66,-190.44 3.91,-66.06 35.59,-104.75 35.52,-198.05 -36.16,30.82 -45.61,58.8 -94.99,80.21 -136.87,59.33 -330.6,-29.25 -367.19,136.76 -27.58,-75.69 -38.42,-151.22 -131.93,-133.13 -62.7,86.33 31.25,207.62 -30.08,353.03 -35.89,85.09 -128.13,164.63 -236.73,187.99 5.02,-54.25 19.99,-131.24 -3.77,-176.77z"/>
   <path class="fil2" d="M1265.69 1243.93l-51.82 47.24c-29.1,17.89 -37.83,30.2 -52.42,51.45 -5.46,15.91 -156.01,255.44 -209.05,373.33 -62.04,137.89 -115.03,279.13 -172.6,420.92 -108.42,266.99 -147.62,367.76 -381.44,504.33 -56.12,32.78 -150.4,69.53 -185.52,115.4 192.55,31.49 343.58,37.26 530.65,91.86 145.48,42.47 92.32,35.18 241.3,-3.51 88.24,-22.92 170.44,-37.56 257.08,-57.86 18.81,-69.81 97.04,-225.64 132.91,-275.93 159.35,-223.44 462.29,-119.08 489.84,-339.69 13.78,-110.38 -69.07,-229.34 -69.88,-352.23 -17.35,-31.14 -11.4,-88.03 -19.26,-134.49 -128.83,32.25 -93.66,189.91 -324.88,272.66 -282.5,101.09 -448.71,-178.52 -316.21,-478.73 37.13,-84.12 76.98,-121.75 128.31,-174.48 203.63,-209.25 406.72,-58.95 433.79,-54.07 -130.49,-132.26 -283.93,-82.69 -430.8,-6.2z"/>
   <path class="fil3" d="M1161.45 1342.62c14.59,-21.24 23.32,-33.55 52.42,-51.45 140.47,-350.74 -57.37,-495.63 -54.63,-658.3 0.89,-53.55 25.64,-54.56 77.27,-63.82 23.59,106.86 82.98,193.45 88.59,315.8 23.77,45.53 8.79,122.52 3.77,176.77 108.59,-23.36 200.84,-102.9 236.73,-187.99 61.34,-145.41 -32.62,-266.7 30.08,-353.03 93.51,-18.08 104.35,57.44 131.93,133.13 36.58,-166.01 230.32,-77.43 367.19,-136.76 49.38,-21.41 58.83,-49.39 94.99,-80.21 31.18,-176.44 -12.82,-233.64 -118.33,-315.31 -224.08,-173.45 -501.94,-152.58 -724.92,8.3 -95.91,69.19 -157.03,173.35 -155.85,333.94 -67.58,17.56 -57.95,28.4 -117.81,56.53 -253.75,119.23 -165.09,421.56 -56.15,621.36 43.09,79.02 119.25,175.7 -0.13,219.89 76.42,15.29 83.63,7.87 144.84,-18.86z"/>
   <path class="fil1" d="M1537.95 4680.54c28.24,65.12 35.16,70.39 115.13,89.56 50.58,12.14 121.42,36.24 171.37,30.27 17,-24.74 32.33,-46 44.83,-81.42 13.34,-37.76 14.48,-73.82 50.29,-80.37 -0.76,-98.85 135.15,-338.93 164.2,-455.58 -161.48,39.66 -329.22,-1.7 -417.21,-103.75 -13.61,109.94 -77.51,543.46 -128.62,601.29z"/>
   <path class="fil4" d="M1863.51 5052.81c-148.96,-0.99 -310.2,6.42 -442.6,-38.8l-17.37 150.4c123.65,44.38 485.62,26.96 679.46,38.01 205.5,11.71 511.3,6.52 562.76,-168.51 -218.71,40.44 -512.51,122.26 -782.25,18.89z"/>
   <path class="fil2" d="M1537.95 4680.54l-33.2 -3.69 -27.29 109.28c396.46,12.09 554.25,272.88 1105.73,215.89 9.26,-0.95 32.05,-4.29 39.67,-6.53l27.46 -11.5c2.31,-1.03 6.19,-2.98 9.08,-4.81 -19.35,-177.72 -260.7,67.83 -667.95,-280.91 -31.66,-27.11 -37.41,-49.76 -71.87,-59.69 -35.81,6.54 -36.96,42.6 -50.29,80.37 -12.5,35.42 -27.84,56.68 -44.83,81.42 -49.95,5.96 -120.79,-18.14 -171.37,-30.27 -79.97,-19.17 -86.89,-24.43 -115.13,-89.56z"/>
   <path class="fil2" d="M1420.91 5014.02c132.39,45.22 293.64,37.81 442.6,38.8l56.59 -25.69c-3.21,-147.62 -320.06,-185.65 -465.65,-150.45l-33.55 137.35z"/>
   <path class="fil5" d="M1213.87 1291.17l51.82 -47.24c39.9,-148.55 73.7,-171.56 59.41,-359.08 -5.61,-122.36 -65,-208.94 -88.59,-315.8 -51.63,9.26 -76.38,10.27 -77.27,63.82 -2.74,162.67 195.1,307.56 54.63,658.3z"/>
  </g>
 </g>
</svg>
